<svg width="47" height="58" viewBox="0 0 47 58" fill="none" xmlns="http://www.w3.org/2000/svg">
<path d="M24.0524 14.0169C26.6154 14.0169 29.8282 12.2841 31.7414 9.97383C33.4741 7.88011 34.7376 4.95613 34.7376 2.03214C34.7376 1.63506 34.7015 1.23797 34.6293 0.913086C31.7775 1.02138 28.3481 2.82631 26.2905 5.24492C24.6661 7.08594 23.186 9.97383 23.186 12.9339C23.186 13.3671 23.2582 13.8003 23.2943 13.9447C23.4748 13.9808 23.7636 14.0169 24.0524 14.0169ZM15.0277 57.6961C18.5293 57.6961 20.0815 55.3497 24.4495 55.3497C28.8896 55.3497 29.8643 57.6239 33.7629 57.6239C37.5893 57.6239 40.1523 54.0863 42.571 50.6208C45.2783 46.65 46.3974 42.7513 46.4696 42.5708C46.2169 42.4986 38.8889 39.5025 38.8889 31.0915C38.8889 23.7996 44.6647 20.5146 44.9896 20.2619C41.1631 14.7749 35.3512 14.6305 33.7629 14.6305C29.4672 14.6305 25.9656 17.2296 23.7636 17.2296C21.3811 17.2296 18.2405 14.7749 14.5224 14.7749C7.44704 14.7749 0.263428 20.6229 0.263428 31.6691C0.263428 38.5278 2.93472 45.7836 6.21969 50.4764C9.03538 54.4473 11.4901 57.6961 15.0277 57.6961Z" fill="white"/>
</svg>
