<svg width="65" height="61" viewBox="0 0 65 61" fill="none" xmlns="http://www.w3.org/2000/svg">
<path d="M64.8279 9.5461C62.4694 10.5931 59.9346 11.2983 57.2742 11.6162C59.9907 9.98949 62.0768 7.41194 63.057 4.34024C60.5169 5.84671 57.7016 6.94183 54.7047 7.53213C52.3087 4.97595 48.8871 3.37866 45.1049 3.37866C36.6137 3.37866 30.3741 11.301 32.292 19.5251C21.3647 18.9776 11.6742 13.7423 5.18621 5.78527C1.74057 11.6963 3.39929 19.429 9.25421 23.3447C7.10135 23.2753 5.07136 22.685 3.30046 21.6993C3.15622 27.792 7.52338 33.492 13.8484 34.7607C11.9974 35.2629 9.97005 35.3804 7.90801 34.9851C9.58008 40.2097 14.436 44.0106 20.1948 44.1174C14.6657 48.4525 7.69966 50.389 0.7229 49.5663C6.5431 53.2978 13.4584 55.4747 20.8839 55.4747C45.3026 55.4747 59.0985 34.8516 58.2652 16.3546C60.8347 14.4982 63.065 12.1824 64.8279 9.5461V9.5461Z" fill="white"/>
</svg>
